<?xml version="1.0" encoding="UTF-8" standalone="no"?>
<!-- Created with Inkscape (http://www.inkscape.org/) -->

<svg
   xmlns:dc="http://purl.org/dc/elements/1.1/"
   xmlns:cc="http://creativecommons.org/ns#"
   xmlns:rdf="http://www.w3.org/1999/02/22-rdf-syntax-ns#"
   xmlns:svg="http://www.w3.org/2000/svg"
   xmlns="http://www.w3.org/2000/svg"
   xmlns:sodipodi="http://sodipodi.sourceforge.net/DTD/sodipodi-0.dtd"
   xmlns:inkscape="http://www.inkscape.org/namespaces/inkscape"
   width="210mm"
   height="297mm"
   viewBox="0 0 210 297"
   version="1.1"
   id="svg8"
   inkscape:version="0.92.1 r15371"
   sodipodi:docname="logo.svg"
   inkscape:export-filename="C:\Users\Tucto\Desktop\Examen\imagen\logo.png"
   inkscape:export-xdpi="96"
   inkscape:export-ydpi="96">
  <defs
     id="defs2">
    <inkscape:perspective
       sodipodi:type="inkscape:persp3d"
       inkscape:vp_x="-16.827445 : 107.67857 : 1"
       inkscape:vp_y="0 : 1000 : 0"
       inkscape:vp_z="278.60898 : 107.67857 : 1"
       inkscape:persp3d-origin="130.89076 : 58.17857 : 1"
       id="perspective15" />
  </defs>
  <sodipodi:namedview
     id="base"
     pagecolor="#ffffff"
     bordercolor="#666666"
     borderopacity="1.0"
     inkscape:pageopacity="0.0"
     inkscape:pageshadow="2"
     inkscape:zoom="0.35"
     inkscape:cx="-127.14286"
     inkscape:cy="560"
     inkscape:document-units="mm"
     inkscape:current-layer="layer1"
     showgrid="false"
     inkscape:window-width="1360"
     inkscape:window-height="706"
     inkscape:window-x="-8"
     inkscape:window-y="-8"
     inkscape:window-maximized="1" />
  <metadata
     id="metadata5">
    <rdf:RDF>
      <cc:Work
         rdf:about="">
        <dc:format>image/svg+xml</dc:format>
        <dc:type
           rdf:resource="http://purl.org/dc/dcmitype/StillImage" />
        <dc:title></dc:title>
      </cc:Work>
    </rdf:RDF>
  </metadata>
  <g
     inkscape:label="Capa 1"
     inkscape:groupmode="layer"
     id="layer1">
    <g
       id="g79"
       transform="translate(-2.2678571,-13.607143)">
      <g
         inkscape:corner7="0.0065046449 : 0.069707982 : 0.25 : 1"
         inkscape:corner0="2.6552011 : 0.19196583 : 0 : 1"
         inkscape:perspectiveID="#perspective15"
         style="fill:#d40000"
         id="g17"
         sodipodi:type="inkscape:box3d">
        <path
           points="25.853567,197.40002 42.17944,197.75394 42.17944,166.44753 25.853567,163.95238 "
           d="m 25.853567,163.95238 v 33.44764 l 16.325873,0.35392 v -31.30641 z"
           inkscape:box3dsidetype="6"
           style="fill:#d40000;fill-rule:evenodd;stroke:none;stroke-width:1.18610299;stroke-linejoin:round"
           id="path19"
           sodipodi:type="inkscape:box3dside" />
        <path
           points="161.78462,89.545927 161.78462,186.84588 42.17944,197.75394 42.17944,166.44753 "
           d="M 42.17944,166.44753 161.78462,89.545927 V 186.84588 L 42.17944,197.75394 Z"
           inkscape:box3dsidetype="11"
           style="fill:#d40000;fill-rule:evenodd;stroke:none;stroke-width:1.18610299;stroke-linejoin:round"
           id="path29"
           sodipodi:type="inkscape:box3dside" />
        <path
           points="132.20398,61.383451 161.78462,89.545927 42.17944,166.44753 25.853567,163.95238 "
           d="M 25.853567,163.95238 132.20398,61.383451 161.78462,89.545927 42.17944,166.44753 Z"
           inkscape:box3dsidetype="5"
           style="fill:#d40000;fill-rule:evenodd;stroke:none;stroke-width:1.18610299;stroke-linejoin:round"
           id="path21"
           sodipodi:type="inkscape:box3dside" />
        <path
           points="132.20398,182.85119 161.78462,186.84588 42.17944,197.75394 25.853567,197.40002 "
           d="m 25.853567,197.40002 106.350413,-14.54883 29.58064,3.99469 -119.60518,10.90806 z"
           inkscape:box3dsidetype="13"
           style="fill:#d40000;fill-rule:evenodd;stroke:none;stroke-width:1.18610299;stroke-linejoin:round"
           id="path27"
           sodipodi:type="inkscape:box3dside" />
        <path
           points="132.20398,182.85119 161.78462,186.84588 161.78462,89.545927 132.20398,61.383451 "
           d="M 132.20398,61.383451 V 182.85119 l 29.58064,3.99469 V 89.545927 Z"
           inkscape:box3dsidetype="14"
           style="fill:#d40000;fill-rule:evenodd;stroke:none;stroke-width:1.18610299;stroke-linejoin:round"
           id="path25"
           sodipodi:type="inkscape:box3dside" />
        <path
           points="132.20398,61.383451 132.20398,182.85119 25.853567,197.40002 25.853567,163.95238 "
           d="M 25.853567,163.95238 132.20398,61.383451 V 182.85119 L 25.853567,197.40002 Z"
           inkscape:box3dsidetype="3"
           style="fill:#d40000;fill-rule:evenodd;stroke:none;stroke-width:1.18610299;stroke-linejoin:round"
           id="path23"
           sodipodi:type="inkscape:box3dside" />
      </g>
      <path
         id="path45"
         transform="scale(0.26458333)"
         d="m 561.17578,415.28906 -25.21484,12.84766 c 0.15085,7.42174 0.21436,14.8458 0.25586,22.26953 -9.94222,0.0355 -19.88404,0.0644 -29.82618,0.10937 -15.61863,-0.0167 -31.24129,-0.04 -46.85546,-0.45117 l -34.28711,24.91016 c 16.02939,-0.40071 32.06606,-0.43227 48.09961,-0.45117 16.27725,0.0745 32.55493,0.0873 48.83203,0.19726 4.68539,0.0273 9.3712,0.0526 14.05664,0.0762 -0.0297,7.41448 -0.0734,14.82789 -0.13086,22.24218 -0.0465,6.80516 -0.1025,13.61071 -0.0723,20.41602 -0.003,7.25155 0.0382,14.50235 0.0391,21.7539 -0.33464,7.39745 0.67202,14.93535 -0.46875,22.27149 -1.37553,5.85634 -1.8576,11.85044 -2.13086,17.84375 -0.24756,7.50557 -0.29272,15.01795 -0.28516,22.52734 -0.004,6.84484 -0.0198,13.69028 -0.0273,20.53516 -0.006,5.82856 -0.007,11.65777 -0.008,17.48633 -0.38143,5.76211 0.0312,10.51374 4.82032,14.17773 4.83057,2.51078 10.38138,2.45957 15.69336,2.57031 5.26597,0.3656 10.37743,-0.3196 15.44336,-1.70117 0.69063,-0.2663 1.38163,-0.53237 2.07226,-0.79883 l 22.21875,-17.49414 c -0.67461,0.28914 -1.35078,0.57806 -2.02539,0.86719 -4.5826,2.22274 -9.83583,2.7329 -14.875,2.58398 -4.90957,-0.0284 -9.9564,0.1187 -14.70508,-1.30078 -4.512,-2.34247 -3.52904,-7.27184 -3.52148,-11.70507 0,-5.82452 -0.004,-11.64814 -0.0195,-17.47266 -0.0219,-6.82862 -0.0565,-13.65767 -0.0527,-20.48633 0.0371,-7.47084 -0.004,-14.94706 0.39649,-22.41016 0.40932,-5.95853 1.15189,-11.85536 2.25586,-17.72656 0.57675,-7.4807 -9.7e-4,-15.0056 0.21484,-22.50195 7.6e-4,-7.26493 0.0421,-14.52999 0.0391,-21.79492 0.0317,-6.78047 -0.0239,-13.55952 -0.0723,-20.33985 -0.0246,-3.14246 -0.0429,-6.28523 -0.0645,-9.42773 3.36876,0.0106 6.73668,0.0292 10.10547,0.0332 4.73586,0.004 9.47312,0.004 14.20899,0.004 L 619.5,450.08984 c -4.73843,0 -9.47637,1.3e-4 -14.21484,0.004 -6.35006,0.007 -12.7008,0.019 -19.05078,0.0605 -8.45307,0.0532 -16.90633,0.0905 -25.35938,0.13476 1.4e-4,-0.53255 -0.004,-1.0651 -0.004,-1.59765 0.0333,-11.134 0.086,-22.2705 0.3086,-33.40235 z m -223.74609,79.11328 c -2.12242,0.0208 -4.26218,0.24776 -6.41797,0.64844 -13.91808,2.77304 -26.42063,11.19272 -36.7793,20.71875 -3.21164,3.23845 -5.62171,6.6953 -6.14062,11.36914 -1.03454,5.42816 -0.85275,10.93617 -1.51368,16.41406 -0.7464,5.75811 -2.13719,11.47543 -1.99414,17.3086 0.003,5.96428 0.009,11.93025 0.0195,17.89453 0.01,6.47002 0.006,12.93822 -0.0117,19.4082 0.009,6.43438 0.0244,12.87027 0.0293,19.30469 -0.006,6.72835 -0.0157,13.4552 -0.0137,20.18359 -0.0337,6.35823 0.005,12.71788 0.0195,19.07618 0.021,7.31493 0.0838,14.63222 -0.11133,21.94531 l 25.25391,-12.86914 c -0.19657,-7.27529 -0.13016,-14.55482 -0.10937,-21.83203 0.0144,-6.36484 0.0516,-12.72895 0.0176,-19.09375 0.002,-6.72325 -0.008,-13.44671 -0.0137,-20.16993 0.005,-6.44481 0.0202,-12.88917 0.0293,-19.33398 -0.0181,-6.46583 -0.0215,-12.93254 -0.0117,-19.39844 0.011,-5.97067 0.0165,-11.94144 0.0195,-17.91211 0.0758,-5.7146 1.4925,-11.32177 2.14844,-17.00195 0.43251,-5.47861 0.42138,-10.86137 1.67383,-16.2207 0.11674,-1.40384 0.54466,-2.58994 1.1582,-3.65235 3.30001,-0.24634 6.60205,0.007 9.88477,0.85547 4.27397,1.78564 6.54627,4.68613 7.75195,9.03516 0.3502,2.61105 1.11128,5.1417 1.72852,7.69726 l 24.82031,-13.39257 c -0.62022,-2.60856 -1.27544,-5.21153 -1.75196,-7.85157 -1.61589,-5.18687 -4.36102,-8.77142 -9.22265,-11.37109 -3.437,-1.25591 -6.92554,-1.7944 -10.46289,-1.75977 z m -10.61328,6.05078 c -0.065,0.0425 -0.39373,0.23777 -1.07422,0.63672 -0.76662,0.44945 -1.21828,0.70403 -1.94531,1.12891 1.63386,-0.97025 3.17575,-1.86782 3.01953,-1.76563 z m 119.4707,13.98633 c -14.03932,0.28929 -25.79242,10.41094 -36.9082,18.09571 -2.97604,4.06526 -5.94054,8.28342 -8.65235,12.57031 -1.98769,2.07689 -3.4183,4.49507 -4.75976,7.00781 l 25.78125,-11.4668 c 1.49631,-2.35286 3.11789,-4.5996 4.77929,-6.83984 0.59408,-0.85924 1.17233,-1.74908 1.75586,-2.63672 3.74073,0.29212 7.45571,0.82777 11.01368,2.0957 4.1258,1.65903 8.09071,3.55801 11.89843,5.8379 3.98945,2.8953 6.94187,6.28826 8.64258,11.0039 1.9697,6.41371 2.29776,12.78034 1.95117,19.48242 -0.01,6.60333 0.0821,13.20787 -0.043,19.81055 -0.12487,5.71911 -0.31101,11.48314 -1.71484,17.06055 -1.79206,6.29121 -4.39249,12.33998 -7.50977,18.08789 -2.7182,4.59404 -5.78388,8.59834 -9.79101,11.98633 -3.87918,0.75091 -7.82024,0.88919 -11.86524,0.60546 -5.07745,-0.19381 -10.37846,-0.31396 -14.88085,-2.95703 -3.91295,-3.20942 -6.03453,-7.83501 -6.35352,-12.88476 -0.0191,-5.62133 -0.0958,-11.25598 0.36914,-16.86328 0.64853,-5.43304 1.90262,-10.60258 5.4375,-14.95508 3.6864,-4.71481 6.85361,-9.8307 10.93164,-14.22266 l -26.21875,10.85938 c -3.34613,4.97896 -6.97054,9.70031 -10.58789,14.47461 -3.42157,4.87423 -4.32632,10.60525 -4.82227,16.39258 -0.32995,5.70126 -0.25106,11.41512 -0.22461,17.12304 0.59823,5.84659 3.24087,10.98377 7.48633,14.97461 4.64637,3.50937 10.34342,4.11862 15.96289,4.50977 5.91209,0.46556 11.71286,0.18887 17.47657,-1.19141 11.96806,-3.60631 22.56228,-11.9926 32.82812,-18.17969 3.00163,-1.80899 5.6577,-4.05603 8.18359,-6.45898 5.62715,-3.62959 8.52601,-9.03012 11.75391,-14.63281 2.97336,-6.04574 5.62445,-12.24619 7.24024,-18.79883 1.23129,-5.81159 1.3529,-11.766 1.43945,-17.68164 -0.0159,-6.6087 -0.007,-13.21759 -0.0527,-19.82617 0.49879,-7.02445 -0.21534,-13.55715 -2.31445,-20.24219 -1.86535,-5.23828 -5.15874,-9.12524 -9.40625,-12.56446 -3.85595,-2.64789 -8.05417,-4.60044 -12.33789,-6.43359 -5.24734,-2.16072 -10.88143,-2.76391 -16.48828,-3.14258 z m -146.16992,1.21094 c -0.9131,0.47211 -0.90619,0.45359 0,0 z m -60.38281,49.91797 c -5.09248,-0.0166 -10.19197,-0.0396 -15.2754,0.31641 -11.45063,0.984 -22.69499,3.34017 -33.83203,6.14257 -16.92539,4.11735 -33.88666,8.16838 -51.21093,10.25782 l -22.61914,16.92773 c 17.53912,-2.68925 34.85594,-6.50011 52.10742,-10.60547 10.87568,-2.65239 21.8445,-4.91924 32.99218,-6.01172 4.99677,-0.42912 10.01239,-0.44752 15.02344,-0.45508 z m 115.75,12.22656 -25.25391,12.86719 c 0.0151,7.2319 0.55988,14.51818 -0.29102,21.71289 -1.06391,6.22976 -1.82169,12.49269 -2.21679,18.79883 -0.29227,5.74617 -0.29291,11.50192 -0.30274,17.2539 -3.8e-4,5.70788 0.009,11.41513 0.0137,17.12305 0.005,5.71329 0.007,11.42734 0.008,17.14063 4e-5,0.9524 -5e-5,1.9031 0,2.85547 l 25.11914,-12.79883 v -2.85743 c -0.001,-5.71404 -0.003,-11.42662 -0.008,-17.14062 -0.005,-5.70516 -0.0158,-11.41203 -0.01,-17.11719 0.0186,-5.69673 0.0345,-11.39741 0.37695,-17.08593 0.45011,-6.26302 1.31456,-12.46943 2.17188,-18.6875 0.54002,-7.342 0.0845,-14.70946 0.39258,-22.06446 z m -76.92579,6.98242 -25.04687,12.9961 c 0.27229,3.46571 0.59439,6.9315 1.31055,10.33984 1.05815,5.2379 1.53783,10.41639 1.22265,15.77734 0.031,6.30792 0.0911,12.61584 0.082,18.92383 -0.0598,6.1488 -0.12023,12.34456 -1.3789,18.39063 -1.9871,8.17073 -5.44737,15.7817 -9.40235,23.1875 -1.05718,1.76994 -2.1256,3.47901 -3.24414,5.14453 -1.78613,-0.5448 -3.48695,-1.43343 -4.99218,-2.66211 -3.67433,-3.97988 -5.79931,-8.6843 -6.73243,-14.04492 -0.89381,-7.50452 -0.81178,-15.00673 -0.70312,-22.55664 0.03,-6.13391 -0.0127,-12.26836 -0.0176,-18.40235 -9.1e-4,-7.22672 0.007,-14.45706 0.34375,-21.67773 0.37165,-6.947 0.88713,-13.91205 2.4082,-20.71875 l -25.5,12.36523 c -1.18316,6.93468 -1.63086,13.95064 -1.98047,20.9668 -0.28724,7.27174 -0.30419,14.55155 -0.33593,21.82813 -0.0117,6.13878 -0.0323,12.27929 0.008,18.41796 -0.13862,7.64863 -0.006,15.22459 0.9375,22.81641 1.08368,5.91383 3.43375,11.16628 7.41601,15.64453 4.70764,4.47995 10.9101,5.59505 17.12696,4.52344 20.9549,-7.85189 31.23475,-15.73286 40.73437,-32.99219 3.95957,-7.71386 7.43748,-15.54544 9.26953,-24.03906 1.151,-6.25115 1.10421,-12.6198 1.11329,-18.94922 -0.01,-6.32258 -0.0384,-12.64421 -0.0527,-18.9668 0.42761,-5.56047 -0.31296,-10.88425 -1.41211,-16.30273 -0.67284,-3.30032 -0.94241,-6.6563 -1.17383,-10.00977 z m -22.85547,101.9375 c 0.39111,-0.22683 -0.5146,0.329 -3.33203,2.06836 -0.21669,0.1045 -0.43814,0.19459 -0.6582,0.28711 1.99285,-1.17301 3.6395,-2.15204 3.99023,-2.35547 z"
         style="fill:#ffff00;stroke-width:0.99999994"
         inkscape:connector-curvature="0" />
      <path
         inkscape:connector-curvature="0"
         d="m 50.199464,153.81699 c -0.05454,2.67012 -0.04997,5.3411 -0.053,8.01166 -0.115559,2.50973 -0.405622,5.00654 -0.575913,7.5128 -0.01347,1.52083 -0.18269,3.01593 -0.615418,4.47475 -0.526339,1.13206 -0.779722,2.32638 -0.917959,3.55865 -0.132884,1.61387 -0.126849,3.23493 -0.128426,4.85301 0.05716,1.61058 -0.125145,3.17197 -1.067856,4.50478 -2.805803,2.79288 -6.769417,5.23511 -10.84453,4.95473 -1.908683,-0.41842 -3.1276,-1.95903 -4.111638,-3.54057 -0.911402,-1.5089 -1.556504,-3.16916 -2.091454,-4.84448 -0.378783,-1.26711 -0.494208,-2.58379 -0.572506,-3.89699 0,0 6.627876,-3.42152 6.627876,-3.42152 v 0 c 0.05839,1.25622 0.140883,2.51826 0.478819,3.7365 0.492964,1.62278 1.114692,3.22908 1.985799,4.68767 0.868344,1.40338 1.957945,2.76016 3.714747,2.91251 0.837959,-0.0334 1.647949,-0.10891 2.447742,-0.38844 0.242917,-0.0849 0.925788,-0.44598 0.706194,-0.31183 -7.96454,4.86563 -7.42139,4.51608 -5.216173,3.03304 1.211774,-1.21918 1.336122,-2.35669 1.309495,-4.04637 0.0019,-1.6352 -0.01855,-3.27247 0.07541,-4.90562 0.103698,-1.27656 0.253249,-2.56173 0.822529,-3.72858 0.617889,-1.33693 0.69301,-2.85623 0.756435,-4.30669 0.185741,-2.50253 0.49276,-4.99365 0.661988,-7.49749 -0.003,-2.65256 0.0019,-5.30555 -0.05299,-7.95765 0,0 6.660832,-3.39387 6.660832,-3.39387 z"
         id="path47"
         style="fill:#ffff00;stroke-width:0.26458332" />
    </g>
  </g>
</svg>
